<?xml version="1.0" encoding="UTF-8" standalone="no"?>
<!-- Created with Inkscape (http://www.inkscape.org/) -->

<svg
   width="500"
   height="500"
   viewBox="0 0 132.29166 132.29167"
   version="1.1"
   id="svg1"
   xml:space="preserve"
   inkscape:version="1.4.4 (dcaf3e7, 2026-05-05)"
   sodipodi:docname="favicon.svg"
   xmlns:inkscape="http://www.inkscape.org/namespaces/inkscape"
   xmlns:sodipodi="http://sodipodi.sourceforge.net/DTD/sodipodi-0.dtd"
   xmlns="http://www.w3.org/2000/svg"
   xmlns:svg="http://www.w3.org/2000/svg"><sodipodi:namedview
     id="namedview1"
     pagecolor="#ffffff"
     bordercolor="#000000"
     borderopacity="0.25"
     inkscape:showpageshadow="2"
     inkscape:pageopacity="0.0"
     inkscape:pagecheckerboard="0"
     inkscape:deskcolor="#d1d1d1"
     inkscape:document-units="mm"
     inkscape:zoom="1.4823793"
     inkscape:cx="277.25697"
     inkscape:cy="255.33276"
     inkscape:window-width="1436"
     inkscape:window-height="942"
     inkscape:window-x="4914"
     inkscape:window-y="287"
     inkscape:window-maximized="0"
     inkscape:current-layer="layer1" /><defs
     id="defs1" /><g
     inkscape:label="Layer 1"
     inkscape:groupmode="layer"
     id="layer1"><path
       style="fill:#0000ff;fill-opacity:1;stroke:none;stroke-width:1.90803;stroke-dasharray:none;stroke-opacity:1"
       d="m 249.47518,338.07233 c -0.78707,-0.24899 -4.27189,-1.77305 -7.74405,-3.38681 l -6.31302,-2.9341 -0.68818,-18.07765 c -0.3785,-9.94271 -0.0567,-19.4246 0.13199,-19.61334 0.18874,-0.18874 4.73951,3.57942 10.69583,6.91617 6.64447,3.72225 11.42963,5.83972 12.38213,5.47918 0.85385,-0.3232 25.80832,-14.58725 55.45436,-31.6979 l 53.90191,-31.11027 0.26787,-11.63496 c 0.14732,-6.39923 -1.20347,-12.4782 -0.94051,-12.4782 0.46606,0 31.73237,17.89004 32.58343,18.6491 0.93873,0.83724 -1.89064,15.72073 -3.63417,19.11703 -3.23825,6.3079 -8.85885,11.24019 -20.6445,18.11635 -59.54755,34.74213 -104.33453,61.95677 -107.79876,63.00179 -4.05215,1.22237 -14.69497,0.5898 -17.65433,-0.34639 z"
       id="path2"
       transform="scale(0.26458333)"
       sodipodi:nodetypes="sscssssscsssssss" /><path
       style="fill:#008000;fill-opacity:1;stroke:none;stroke-width:1.34918;stroke-dasharray:none;stroke-opacity:1"
       d="m 207.28123,404.74508 c -7.81066,-5.12763 -12.4172,-11.13494 -14.36316,-18.73074 -0.88605,-3.4586 -2.33358,-13.28839 -1.55603,-74.11565 l 0.89644,-70.12851 2.51283,-5.08399 c 3.00392,-6.07754 7.5874,-10.95139 13.79529,-14.66925 l 4.50007,-2.69505 2.75043,1.5833 c 1.51274,0.87082 7.30393,4.22314 12.8693,7.44961 5.56538,3.22647 11.44257,6.62663 13.06041,7.55591 l 2.94155,1.68961 -6.3145,3.68266 c -3.47298,2.02547 -8.21331,4.78907 -10.53408,6.14135 l -4.21958,2.45869 0.17203,64.03304 0.17203,64.03303 9.95022,5.80992 c 5.47263,3.19545 11.9775,5.8851 11.9775,6.12276 0,0.51032 -31.9964,18.24588 -32.86459,18.24588 -0.3265,0 -2.91227,-1.52216 -5.74616,-3.38257 z"
       id="path3"
       transform="scale(0.26458333)"
       sodipodi:nodetypes="ssscsscssscsscccssss" /><path
       style="fill:#d40000;fill-opacity:1;stroke:none;stroke-width:1.34918;stroke-dasharray:none;stroke-opacity:1"
       d="m 289.8049,271.08835 c -0.23417,-1.70841 -0.068,-7.4892 -0.068,-12.40892 v -8.94495 l -53.82279,-31.04995 c -29.60254,-17.07747 -54.59493,-31.24374 -55.53866,-31.4806 -1.36309,-0.34212 -3.76252,0.75729 -11.67098,5.34761 -5.47532,3.17804 -10.91538,6.73228 -11.06875,6.73228 -0.15337,0 0.55591,-9.13544 0.55591,-19.13497 v -18.18094 l 4.24853,-2.37592 c 7.24542,-4.05186 9.55304,-4.67656 17.33838,-4.69367 5.56215,-0.0122 7.80753,0.2764 10.45617,1.34403 3.46856,1.39812 99.94684,56.77449 113.46231,65.12483 12.47093,7.70497 16.61417,13.84017 17.93277,26.55436 0.45567,4.39366 0.49593,7.32532 0.10574,7.69926 -0.56983,0.54611 -27.24526,17.21198 -30.67177,19.0144 -1.33735,0.70347 -0.86052,-0.6406 -1.25886,-3.54685 z"
       id="path4"
       transform="scale(0.26458333)"
       sodipodi:nodetypes="sscssssscssssssss" /><path
       style="fill:#ff7f2a;fill-opacity:1;stroke:none;stroke-width:1.34929136;stroke-dasharray:none;stroke-opacity:1"
       d="m 164.8175,290.81098 c -8.04306,-4.67202 -19.39377,-11.22667 -25.2238,-14.5659 -13.14838,-7.53091 -18.16484,-11.92587 -21.64141,-18.96023 -2.28287,-4.61907 -2.49572,-5.58217 -3.0014,-13.58074 -0.70288,-11.11769 -0.71046,-117.2979 -0.009,-128.34902 0.60712,-9.56712 1.67914,-12.75958 6.29275,-18.739665 3.49418,-4.529111 7.85178,-7.614792 22.79074,-16.138474 6.49294,-3.704658 23.34086,-13.413548 37.43981,-21.575309 47.59378,-27.551623 57.37558,-33.175111 60.76883,-34.935595 9.69399,-5.029419 20.45581,-4.867142 29.92638,0.451259 4.05382,2.276513 79.94181,45.983433 100.88868,58.105816 9.77191,5.655205 13.72958,8.354723 16.65717,11.361807 4.75954,4.888796 7.83524,10.958131 8.69018,17.148451 0.3539,2.56245 0.56327,17.60152 0.46528,33.42015 l -0.17817,28.76114 -15.51559,-9.00144 -15.5156,-9.00145 -0.33729,-19.56282 c -0.31284,-18.14407 -0.42921,-19.62999 -1.6047,-20.48876 -0.69707,-0.50926 -8.13444,-4.89846 -16.52748,-9.75377 -66.26412,-38.333235 -89.64428,-51.751274 -91.19072,-52.334992 -1.46246,-0.552014 -2.33682,-0.368919 -4.75531,0.995785 -2.39222,1.349887 -83.42687,48.139397 -100.54485,58.054727 -2.46834,1.42975 -4.81276,2.99099 -5.20982,3.46941 -0.49409,0.59534 -0.86861,20.87417 -1.18677,64.25936 l 0.96615,63.151 14.27998,9.28202 c 8.35957,5.43374 17.24141,8.56212 17.94587,9.13979 1.20855,0.99101 0.3163,3.01683 0.14042,19.94317 l 0.40985,18.53511 z"
       id="path5"
       transform="scale(0.26458333)"
       sodipodi:nodetypes="cssscssssssssscccsssssssscssscc" /><path
       style="fill:#ffd42a;fill-opacity:1;stroke:none;stroke-width:1.34918;stroke-dasharray:none;stroke-opacity:1"
       d="m 325.9857,472.15441 c -1.39711,-0.32915 -3.82564,-1.23901 -5.39673,-2.0219 -5.27917,-2.63067 -52.8606,-29.02302 -52.8606,-29.45321 0,-0.23398 8.74251,-4.62154 17.26349,-9.544 l 15.4927,-8.94994 15.81024,9.15735 c 8.69563,5.03654 16.21919,9.31272 16.71903,9.50262 1.06832,0.40587 5.07968,-1.7997 40.03508,-22.01254 14.46998,-8.36721 27.6751,-15.98966 29.34472,-16.93878 12.15898,-6.91191 34.10124,-19.72719 37.43981,-21.86656 l 4.04754,-2.5937 0.16711,-63.74886 0.1671,-63.74887 -1.85358,-1.06523 c -1.01947,-0.58588 -24.5857,-14.19411 -52.3694,-30.24051 -27.7837,-16.0464 -51.78551,-29.79214 -53.33737,-30.54609 l -2.82155,-1.37082 -3.32829,1.68895 c -2.8893,1.46618 -10.80976,5.94149 -25.48595,14.40037 -2.16904,1.25016 -4.24097,2.27302 -4.60428,2.27302 -0.48386,0 -30.39742,-16.98312 -31.40766,-17.83138 -0.0851,-0.0715 2.19163,-1.45326 5.05943,-3.07066 2.86781,-1.61739 9.16056,-5.27063 13.98388,-8.1183 27.08521,-15.99099 32.3788,-18.82569 38.4534,-20.59162 5.25362,-1.52727 12.8059,-1.0465 18.27737,1.16352 2.19772,0.8877 24.0282,13.18158 48.51217,27.31974 24.48397,14.13816 49.79628,29.18949 56.65894,32.69285 18.49628,9.44226 24.02579,16.15894 25.33682,27.44378 0.25433,2.18917 0.62882,32.68125 0.63104,70.62773 0.004,62.67215 -0.0724,67.07425 -1.23091,71.25224 -2.48527,8.96265 -7.74309,15.16277 -17.84683,21.04529 -9.56312,5.56777 -82.93997,47.95773 -96.61074,55.81223 -15.15206,8.70556 -18.7756,10.09005 -26.17109,9.99951 -3.04408,-0.0373 -6.67778,-0.33707 -8.07489,-0.66623 z"
       id="path6"
       transform="scale(0.26458333)"
       sodipodi:nodetypes="sssscssssscccssscssssssssssscsssss" /><path
       style="fill:#800080;fill-opacity:1;stroke:none;stroke-width:1.34918;stroke-dasharray:none;stroke-opacity:1"
       d="m 170.33427,471.60199 c -4.59576,-1.6291 -6.39376,-2.6377 -68.13371,-38.22009 -46.989956,-27.08159 -50.564971,-29.27147 -54.993884,-33.68664 -6.44451,-6.4245 -8.406114,-10.61149 -9.14495,-19.51966 -0.733513,-8.84398 -0.733754,-128.08954 -2.72e-4,-134.4152 1.017583,-8.77579 6.408989,-17.38862 13.861515,-22.14392 4.277351,-2.72928 50.197951,-29.33423 50.631401,-29.33423 0.17643,0 0.32078,8.13589 0.32078,18.07975 v 18.07974 l -5.22808,3.13537 c -2.875445,1.72446 -10.236921,6.00458 -16.358835,9.51139 l -11.130754,6.37601 -0.446846,3.27142 c -0.245765,1.79928 -0.473439,30.63191 -0.505943,64.07252 l -0.0591,60.8011 54.770078,31.58314 c 30.12354,17.37072 55.32086,31.54165 55.99403,31.49094 0.67319,-0.0507 13.44117,-7.15054 28.3733,-15.7774 35.3964,-20.44986 63.66037,-36.73767 73.44035,-42.3218 l 7.83933,-4.47609 0.42441,-4.99256 c 0.23342,-2.74591 0.4244,-11.70552 0.4244,-19.91024 v -14.91768 l 15.49273,-8.92853 c 8.521,-4.91069 15.6548,-8.92853 15.85289,-8.92853 0.63153,0 0.37592,54.75315 -0.28233,60.4773 -1.13297,9.85231 -5.81952,17.49707 -14.19761,23.15937 -2.04113,1.37948 -18.58588,11.09702 -36.76612,21.59452 -18.18023,10.49749 -41.97372,24.2373 -52.87444,30.53291 -27.38631,15.81671 -28.4273,16.28365 -36.84618,16.52716 -5.33474,0.15431 -7.52206,-0.08 -10.45616,-1.12007 z"
       id="path7"
       transform="scale(0.26458333)" /></g></svg>
